<svg xmlns="http://www.w3.org/2000/svg" viewBox="0 0 1200 630">
  <rect width="1200" height="630" fill="#f7f7f2"/>
  <rect x="60" y="60" width="1080" height="510" rx="28" fill="#ffffff" stroke="#d8ded9" stroke-width="3"/>
  <circle cx="180" cy="315" r="52" fill="#eaf4ed" stroke="#1f6f4a" stroke-width="4"/>
  <text x="180" y="325" text-anchor="middle" font-family="system-ui, sans-serif" font-size="22" font-weight="800" fill="#1f6f4a">You</text>
  <path d="M250 315h120" stroke="#151716" stroke-width="8" stroke-linecap="round"/>
  <rect x="380" y="255" width="180" height="120" rx="20" fill="#f3f6f4" stroke="#151716" stroke-width="4"/>
  <text x="470" y="325" text-anchor="middle" font-family="system-ui, sans-serif" font-size="28" font-weight="800" fill="#151716">Gateway</text>
  <path d="M570 315h90" stroke="#151716" stroke-width="8" stroke-linecap="round"/>
  <rect x="670" y="120" width="150" height="70" rx="16" fill="#eaf4ed" stroke="#1f6f4a" stroke-width="3"/>
  <text x="745" y="162" text-anchor="middle" font-family="system-ui, sans-serif" font-size="20" font-weight="800" fill="#1f6f4a">SourceA</text>
  <rect x="840" y="120" width="150" height="70" rx="16" fill="#edf3fa" stroke="#285d8f" stroke-width="3"/>
  <text x="915" y="162" text-anchor="middle" font-family="system-ui, sans-serif" font-size="20" font-weight="800" fill="#285d8f">Noetfield</text>
  <rect x="670" y="210" width="150" height="70" rx="16" fill="#f3edf8" stroke="#6b4c9a" stroke-width="3"/>
  <text x="745" y="252" text-anchor="middle" font-family="system-ui, sans-serif" font-size="20" font-weight="800" fill="#6b4c9a">TrustField</text>
  <rect x="840" y="210" width="150" height="70" rx="16" fill="#fdf0ea" stroke="#9b4d2f" stroke-width="3"/>
  <text x="915" y="252" text-anchor="middle" font-family="system-ui, sans-serif" font-size="20" font-weight="800" fill="#9b4d2f">BuildMatch</text>
  <rect x="670" y="300" width="150" height="70" rx="16" fill="#fff8e8" stroke="#c08a2d" stroke-width="3"/>
  <text x="745" y="342" text-anchor="middle" font-family="system-ui, sans-serif" font-size="20" font-weight="800" fill="#c08a2d">Forge</text>
  <rect x="840" y="300" width="150" height="70" rx="16" fill="#f6f8f6" stroke="#5c6560" stroke-width="3"/>
  <text x="915" y="342" text-anchor="middle" font-family="system-ui, sans-serif" font-size="20" font-weight="800" fill="#5c6560">Personal</text>
  <rect x="755" y="390" width="150" height="70" rx="16" fill="#edf5f5" stroke="#1a5c5c" stroke-width="3"/>
  <text x="830" y="432" text-anchor="middle" font-family="system-ui, sans-serif" font-size="18" font-weight="800" fill="#1a5c5c">Founder Audit</text>
  <text x="120" y="560" font-family="system-ui, sans-serif" font-size="34" font-weight="800" fill="#151716">Sina Gateway</text>
  <text x="120" y="600" font-family="system-ui, sans-serif" font-size="24" font-weight="600" fill="#5c6560">One intake → sorted product lines</text>
</svg>
